<mxfile host="app.diagrams.net" agent="Mozilla/5.0 (Macintosh; Intel Mac OS X 10_15_7) AppleWebKit/537.36 (KHTML, like Gecko) Chrome/140.0.0.0 Safari/537.36 Edg/140.0.0.0" version="28.2.5">
  <diagram name="第 1 页" id="8MQCBeQPVOL1qtpHSEvL">
    <mxGraphModel dx="1090" dy="1265" grid="1" gridSize="10" guides="1" tooltips="1" connect="1" arrows="1" fold="1" page="1" pageScale="1" pageWidth="827" pageHeight="1169" math="0" shadow="0">
      <root>
        <mxCell id="0" />
        <mxCell id="1" parent="0" />
        <mxCell id="t924K4VCLqQPIul5DUa8-112" value="" style="whiteSpace=wrap;strokeWidth=2;fontSize=15;" parent="1" vertex="1">
          <mxGeometry x="30" y="10" width="340" height="260" as="geometry" />
        </mxCell>
        <mxCell id="t924K4VCLqQPIul5DUa8-113" value="" style="whiteSpace=wrap;strokeWidth=2;fontSize=15;" parent="1" vertex="1">
          <mxGeometry x="30" y="618" width="299" height="222" as="geometry" />
        </mxCell>
        <mxCell id="t924K4VCLqQPIul5DUa8-114" value="" style="whiteSpace=wrap;strokeWidth=3;fontFamily=Comic Sans MS;fontSize=15;" parent="1" vertex="1">
          <mxGeometry x="46" y="310" width="495" height="258" as="geometry" />
        </mxCell>
        <mxCell id="t924K4VCLqQPIul5DUa8-115" value="" style="whiteSpace=wrap;strokeWidth=2;fontSize=15;" parent="1" vertex="1">
          <mxGeometry x="720" y="10" width="390" height="260" as="geometry" />
        </mxCell>
        <mxCell id="t924K4VCLqQPIul5DUa8-116" value="数据加载" style="whiteSpace=wrap;strokeWidth=2;fontSize=15;" parent="1" vertex="1">
          <mxGeometry x="596.5" y="310" width="523" height="387" as="geometry" />
        </mxCell>
        <mxCell id="t924K4VCLqQPIul5DUa8-117" value="" style="whiteSpace=wrap;strokeWidth=2;fontSize=15;" parent="1" vertex="1">
          <mxGeometry x="430" y="10" width="248" height="258" as="geometry" />
        </mxCell>
        <mxCell id="t924K4VCLqQPIul5DUa8-118" value="__init__" style="whiteSpace=wrap;strokeWidth=2;fontSize=19;" parent="1" vertex="1">
          <mxGeometry x="511.5" y="51" width="85" height="54" as="geometry" />
        </mxCell>
        <mxCell id="t924K4VCLqQPIul5DUa8-119" value="memory_tracker" style="whiteSpace=wrap;strokeWidth=2;fontSize=19;" parent="1" vertex="1">
          <mxGeometry x="465" y="189" width="178" height="54" as="geometry" />
        </mxCell>
        <mxCell id="t924K4VCLqQPIul5DUa8-120" value="load_full_data" style="whiteSpace=wrap;strokeWidth=2;fontSize=19;" parent="1" vertex="1">
          <mxGeometry x="767.5" y="350" width="164" height="55" as="geometry" />
        </mxCell>
        <mxCell id="t924K4VCLqQPIul5DUa8-121" value="load_data" style="whiteSpace=wrap;strokeWidth=2;fontSize=19;" parent="1" vertex="1">
          <mxGeometry x="784" y="470" width="131" height="54" as="geometry" />
        </mxCell>
        <mxCell id="t924K4VCLqQPIul5DUa8-122" value="load_meta_from_h5" style="whiteSpace=wrap;strokeWidth=2;fontSize=19;" parent="1" vertex="1">
          <mxGeometry x="631.5" y="618" width="204" height="54" as="geometry" />
        </mxCell>
        <mxCell id="t924K4VCLqQPIul5DUa8-123" value="load_data_from_h5" style="whiteSpace=wrap;strokeWidth=2;fontSize=19;" parent="1" vertex="1">
          <mxGeometry x="885.5" y="618" width="199" height="54" as="geometry" />
        </mxCell>
        <mxCell id="t924K4VCLqQPIul5DUa8-124" value="get_image_by_mz" style="whiteSpace=wrap;strokeWidth=2;fontSize=19;" parent="1" vertex="1">
          <mxGeometry x="810" y="113" width="189" height="54" as="geometry" />
        </mxCell>
        <mxCell id="t924K4VCLqQPIul5DUa8-125" value="write2local" style="whiteSpace=wrap;strokeWidth=2;fontSize=19;" parent="1" vertex="1">
          <mxGeometry x="226" y="335" width="141" height="54" as="geometry" />
        </mxCell>
        <mxCell id="t924K4VCLqQPIul5DUa8-126" value="_write_meta_data" style="whiteSpace=wrap;strokeWidth=2;fontSize=19;" parent="1" vertex="1">
          <mxGeometry x="81" y="489" width="192" height="54" as="geometry" />
        </mxCell>
        <mxCell id="t924K4VCLqQPIul5DUa8-127" value="_create_datasets" style="whiteSpace=wrap;strokeWidth=2;fontSize=19;" parent="1" vertex="1">
          <mxGeometry x="323" y="489" width="183" height="54" as="geometry" />
        </mxCell>
        <mxCell id="t924K4VCLqQPIul5DUa8-128" value="inspect_data" style="whiteSpace=wrap;strokeWidth=2;fontSize=19;" parent="1" vertex="1">
          <mxGeometry x="101" y="745" width="152" height="54" as="geometry" />
        </mxCell>
        <mxCell id="t924K4VCLqQPIul5DUa8-129" value="_inspect_hdf5_structure" style="whiteSpace=wrap;strokeWidth=2;fontSize=19;" parent="1" vertex="1">
          <mxGeometry x="60" y="680" width="235" height="54" as="geometry" />
        </mxCell>
        <mxCell id="t924K4VCLqQPIul5DUa8-130" value="calculate_memory_usage_sys" style="whiteSpace=wrap;strokeWidth=2;fontSize=19;" parent="1" vertex="1">
          <mxGeometry x="65" y="105" width="270" height="54" as="geometry" />
        </mxCell>
        <mxCell id="t924K4VCLqQPIul5DUa8-131" value="" style="whiteSpace=wrap;strokeWidth=2;fontSize=15;" parent="1" vertex="1">
          <mxGeometry x="236" y="799" as="geometry" />
        </mxCell>
        <mxCell id="t924K4VCLqQPIul5DUa8-132" value="" style="whiteSpace=wrap;strokeWidth=2;fontSize=15;" parent="1" vertex="1">
          <mxGeometry x="267" y="928" as="geometry" />
        </mxCell>
        <mxCell id="t924K4VCLqQPIul5DUa8-133" value="" style="curved=1;startArrow=none;endArrow=block;exitX=0.5;exitY=1;entryX=0.5;entryY=0;rounded=0;exitDx=0;exitDy=0;entryDx=0;entryDy=0;fontSize=15;" parent="1" source="t924K4VCLqQPIul5DUa8-118" target="t924K4VCLqQPIul5DUa8-119" edge="1">
          <mxGeometry relative="1" as="geometry">
            <Array as="points">
              <mxPoint x="554" y="130" />
              <mxPoint x="554" y="170" />
            </Array>
            <mxPoint x="540.0000000000001" y="105" as="sourcePoint" />
            <mxPoint x="557.5599999999998" y="189" as="targetPoint" />
          </mxGeometry>
        </mxCell>
        <mxCell id="t924K4VCLqQPIul5DUa8-135" value="" style="curved=1;startArrow=none;endArrow=block;entryX=0.5;entryY=0;rounded=0;exitX=0.5;exitY=1;exitDx=0;exitDy=0;fontSize=15;" parent="1" source="t924K4VCLqQPIul5DUa8-120" target="t924K4VCLqQPIul5DUa8-121" edge="1">
          <mxGeometry relative="1" as="geometry">
            <Array as="points" />
            <mxPoint x="850" y="420" as="sourcePoint" />
          </mxGeometry>
        </mxCell>
        <mxCell id="t924K4VCLqQPIul5DUa8-136" value="" style="curved=1;startArrow=none;endArrow=block;exitX=0;exitY=1;entryX=0.5;entryY=0;rounded=0;fontSize=15;" parent="1" source="t924K4VCLqQPIul5DUa8-121" target="t924K4VCLqQPIul5DUa8-122" edge="1">
          <mxGeometry relative="1" as="geometry">
            <Array as="points">
              <mxPoint x="733.5" y="568" />
            </Array>
          </mxGeometry>
        </mxCell>
        <mxCell id="t924K4VCLqQPIul5DUa8-137" value="" style="curved=1;startArrow=none;endArrow=block;exitX=1;exitY=1;entryX=0.5;entryY=0;rounded=0;fontSize=15;" parent="1" source="t924K4VCLqQPIul5DUa8-121" target="t924K4VCLqQPIul5DUa8-123" edge="1">
          <mxGeometry relative="1" as="geometry">
            <Array as="points">
              <mxPoint x="984.5" y="568" />
            </Array>
          </mxGeometry>
        </mxCell>
        <mxCell id="t924K4VCLqQPIul5DUa8-139" value="" style="curved=1;startArrow=none;endArrow=block;exitX=0.06;exitY=1;entryX=0.5;entryY=0;rounded=0;fontSize=15;" parent="1" source="t924K4VCLqQPIul5DUa8-125" target="t924K4VCLqQPIul5DUa8-126" edge="1">
          <mxGeometry relative="1" as="geometry">
            <Array as="points">
              <mxPoint x="177" y="414" />
            </Array>
          </mxGeometry>
        </mxCell>
        <mxCell id="t924K4VCLqQPIul5DUa8-140" value="" style="curved=1;startArrow=none;endArrow=block;exitX=0.93;exitY=1;entryX=0.5;entryY=0;rounded=0;fontSize=15;" parent="1" source="t924K4VCLqQPIul5DUa8-125" target="t924K4VCLqQPIul5DUa8-127" edge="1">
          <mxGeometry relative="1" as="geometry">
            <Array as="points">
              <mxPoint x="415" y="414" />
            </Array>
          </mxGeometry>
        </mxCell>
        <mxCell id="t924K4VCLqQPIul5DUa8-144" value="" style="curved=1;startArrow=none;endArrow=block;exitX=0.5;exitY=1;entryX=0.5;entryY=0;rounded=0;fontSize=15;" parent="1" source="t924K4VCLqQPIul5DUa8-126" target="t924K4VCLqQPIul5DUa8-129" edge="1">
          <mxGeometry relative="1" as="geometry">
            <Array as="points" />
          </mxGeometry>
        </mxCell>
        <mxCell id="t924K4VCLqQPIul5DUa8-145" value="" style="curved=1;startArrow=none;endArrow=block;exitX=1;exitY=0.5;entryX=0.385;entryY=0.013;rounded=0;entryDx=0;entryDy=0;exitDx=0;exitDy=0;entryPerimeter=0;fontSize=15;" parent="1" source="t924K4VCLqQPIul5DUa8-130" target="t924K4VCLqQPIul5DUa8-119" edge="1">
          <mxGeometry relative="1" as="geometry">
            <Array as="points">
              <mxPoint x="370" y="100" />
              <mxPoint x="440" y="90" />
              <mxPoint x="500" y="120" />
            </Array>
            <mxPoint x="488.3000000000002" y="189" as="targetPoint" />
          </mxGeometry>
        </mxCell>
        <mxCell id="t924K4VCLqQPIul5DUa8-147" value="&lt;font face=&quot;Comic Sans MS&quot;&gt;Data Input&lt;/font&gt;" style="text;html=1;align=center;verticalAlign=middle;whiteSpace=wrap;rounded=0;fontSize=20;" parent="1" vertex="1">
          <mxGeometry x="970" y="330" width="140" height="30" as="geometry" />
        </mxCell>
        <mxCell id="t924K4VCLqQPIul5DUa8-148" value="&lt;span style=&quot;font-family: &amp;quot;Comic Sans MS&amp;quot;; font-style: normal; font-variant-ligatures: normal; font-variant-caps: normal; font-weight: 400; letter-spacing: normal; orphans: 2; text-align: center; text-indent: 0px; text-transform: none; widows: 2; word-spacing: 0px; -webkit-text-stroke-width: 0px; white-space: normal; text-decoration-thickness: initial; text-decoration-style: initial; text-decoration-color: initial; float: none; display: inline !important;&quot;&gt;Data Output&lt;/span&gt;" style="text;html=1;align=center;verticalAlign=middle;whiteSpace=wrap;rounded=0;fontColor=default;labelBackgroundColor=default;fontSize=20;" parent="1" vertex="1">
          <mxGeometry x="400" y="320" width="140" height="30" as="geometry" />
        </mxCell>
        <mxCell id="t924K4VCLqQPIul5DUa8-149" value="&lt;span style=&quot;font-family: &amp;quot;Comic Sans MS&amp;quot;; font-style: normal; font-variant-ligatures: normal; font-variant-caps: normal; font-weight: 400; letter-spacing: normal; orphans: 2; text-align: center; text-indent: 0px; text-transform: none; widows: 2; word-spacing: 0px; -webkit-text-stroke-width: 0px; white-space: normal; text-decoration-thickness: initial; text-decoration-style: initial; text-decoration-color: initial; float: none; display: inline !important;&quot;&gt;Init&lt;/span&gt;" style="text;html=1;align=center;verticalAlign=middle;whiteSpace=wrap;rounded=0;fontColor=default;labelBackgroundColor=default;fontSize=22;" parent="1" vertex="1">
          <mxGeometry x="484" y="10" width="140" height="30" as="geometry" />
        </mxCell>
        <mxCell id="t924K4VCLqQPIul5DUa8-150" value="&lt;span style=&quot;font-family: &amp;quot;Comic Sans MS&amp;quot;; font-style: normal; font-variant-ligatures: normal; font-variant-caps: normal; font-weight: 400; letter-spacing: normal; orphans: 2; text-align: center; text-indent: 0px; text-transform: none; widows: 2; word-spacing: 0px; -webkit-text-stroke-width: 0px; white-space: normal; text-decoration-thickness: initial; text-decoration-style: initial; text-decoration-color: initial; float: none; display: inline !important;&quot;&gt;Memory Inspect&lt;/span&gt;" style="text;html=1;align=center;verticalAlign=middle;whiteSpace=wrap;rounded=0;fontColor=default;labelBackgroundColor=default;fontSize=20;" parent="1" vertex="1">
          <mxGeometry x="166" y="10" width="202" height="30" as="geometry" />
        </mxCell>
        <mxCell id="t924K4VCLqQPIul5DUa8-151" value="&lt;span style=&quot;font-family: &amp;quot;Comic Sans MS&amp;quot;; font-style: normal; font-variant-ligatures: normal; font-variant-caps: normal; font-weight: 400; letter-spacing: normal; orphans: 2; text-align: center; text-indent: 0px; text-transform: none; widows: 2; word-spacing: 0px; -webkit-text-stroke-width: 0px; white-space: normal; text-decoration-thickness: initial; text-decoration-style: initial; text-decoration-color: initial; float: none; display: inline !important;&quot;&gt;Data Query&lt;/span&gt;" style="text;html=1;align=center;verticalAlign=middle;whiteSpace=wrap;rounded=0;fontColor=default;labelBackgroundColor=default;fontSize=20;" parent="1" vertex="1">
          <mxGeometry x="970" y="10" width="140" height="30" as="geometry" />
        </mxCell>
        <mxCell id="-zze1FlYPTq8eTiR2Vq8-1" value="&lt;span style=&quot;background-color: light-dark(rgb(27, 29, 30), rgb(0, 0, 0));&quot;&gt;&lt;font style=&quot;&quot; face=&quot;Comic Sans MS&quot;&gt;Data Inspect&lt;/font&gt;&lt;/span&gt;" style="text;html=1;align=center;verticalAlign=middle;whiteSpace=wrap;rounded=0;fontColor=default;labelBackgroundColor=default;fontSize=20;" vertex="1" parent="1">
          <mxGeometry x="189" y="630" width="140" height="30" as="geometry" />
        </mxCell>
      </root>
    </mxGraphModel>
  </diagram>
</mxfile>
